<svg width="25" height="11" viewBox="0 0 25 11" fill="none" xmlns="http://www.w3.org/2000/svg">
<path d="M0.518 5.114C0.518 4.162 0.737333 3.308 1.176 2.552C1.624 1.796 2.226 1.208 2.982 0.787999C3.74733 0.358666 4.58267 0.143999 5.488 0.143999C6.524 0.143999 7.44333 0.400666 8.246 0.913999C9.058 1.418 9.646 2.13667 10.01 3.07H8.092C7.84 2.55667 7.49 2.174 7.042 1.922C6.594 1.67 6.076 1.544 5.488 1.544C4.844 1.544 4.27 1.68867 3.766 1.978C3.262 2.26733 2.86533 2.68267 2.576 3.224C2.296 3.76533 2.156 4.39533 2.156 5.114C2.156 5.83267 2.296 6.46267 2.576 7.004C2.86533 7.54533 3.262 7.96533 3.766 8.264C4.27 8.55333 4.844 8.698 5.488 8.698C6.076 8.698 6.594 8.572 7.042 8.32C7.49 8.068 7.84 7.68533 8.092 7.172H10.01C9.646 8.10533 9.058 8.824 8.246 9.328C7.44333 9.832 6.524 10.084 5.488 10.084C4.57333 10.084 3.738 9.874 2.982 9.454C2.226 9.02467 1.624 8.432 1.176 7.676C0.737333 6.92 0.518 6.066 0.518 5.114ZM21.2161 2.16C21.8228 2.16 22.3641 2.286 22.8401 2.538C23.3255 2.79 23.7035 3.16333 23.9741 3.658C24.2541 4.15267 24.3941 4.75 24.3941 5.45V10H22.8121V5.688C22.8121 4.99733 22.6395 4.47 22.2941 4.106C21.9488 3.73267 21.4775 3.546 20.8801 3.546C20.2828 3.546 19.8068 3.73267 19.4521 4.106C19.1068 4.47 18.9341 4.99733 18.9341 5.688V10H17.3521V5.688C17.3521 4.99733 17.1795 4.47 16.8341 4.106C16.4888 3.73267 16.0175 3.546 15.4201 3.546C14.8228 3.546 14.3468 3.73267 13.9921 4.106C13.6468 4.47 13.4741 4.99733 13.4741 5.688V10H11.8781V2.286H13.4741V3.168C13.7355 2.85067 14.0668 2.60333 14.4681 2.426C14.8695 2.24867 15.2988 2.16 15.7561 2.16C16.3721 2.16 16.9228 2.29067 17.4081 2.552C17.8935 2.81333 18.2668 3.19133 18.5281 3.686C18.7615 3.21933 19.1255 2.85067 19.6201 2.58C20.1148 2.3 20.6468 2.16 21.2161 2.16Z" fill="#474747"/>
</svg>
