<svg width="17" height="14" viewBox="0 0 17 14" fill="none" xmlns="http://www.w3.org/2000/svg">
<path d="M5.412 10L1.646 5.646V10H0.05V0.269999H1.646V4.708L5.426 0.269999H7.428L3.2 5.142L7.498 10H5.412ZM12.0174 2.16C12.6147 2.16 13.142 2.28133 13.5994 2.524C14.066 2.75733 14.43 3.05133 14.6914 3.406V2.286H16.3014V10.126C16.3014 10.8353 16.152 11.4653 15.8534 12.016C15.5547 12.576 15.1207 13.0147 14.5514 13.332C13.9914 13.6493 13.3194 13.808 12.5354 13.808C11.49 13.808 10.622 13.5607 9.93138 13.066C9.24071 12.5807 8.84871 11.918 8.75538 11.078H10.3374C10.4587 11.4793 10.7154 11.8013 11.1074 12.044C11.5087 12.296 11.9847 12.422 12.5354 12.422C13.1794 12.422 13.6974 12.226 14.0894 11.834C14.4907 11.442 14.6914 10.8727 14.6914 10.126V8.838C14.4207 9.202 14.052 9.51 13.5854 9.762C13.128 10.0047 12.6054 10.126 12.0174 10.126C11.3454 10.126 10.7294 9.958 10.1694 9.622C9.61871 9.27667 9.18004 8.80067 8.85338 8.194C8.53604 7.578 8.37738 6.88267 8.37738 6.108C8.37738 5.33333 8.53604 4.64733 8.85338 4.05C9.18004 3.45267 9.61871 2.99067 10.1694 2.664C10.7294 2.328 11.3454 2.16 12.0174 2.16ZM14.6914 6.136C14.6914 5.604 14.5794 5.142 14.3554 4.75C14.1407 4.358 13.856 4.05933 13.5014 3.854C13.1467 3.64867 12.764 3.546 12.3534 3.546C11.9427 3.546 11.56 3.64867 11.2054 3.854C10.8507 4.05 10.5614 4.344 10.3374 4.736C10.1227 5.11867 10.0154 5.576 10.0154 6.108C10.0154 6.64 10.1227 7.10667 10.3374 7.508C10.5614 7.90933 10.8507 8.21733 11.2054 8.432C11.5694 8.63733 11.952 8.74 12.3534 8.74C12.764 8.74 13.1467 8.63733 13.5014 8.432C13.856 8.22667 14.1407 7.928 14.3554 7.536C14.5794 7.13467 14.6914 6.668 14.6914 6.136Z" fill="#474747"/>
</svg>
